# xmcd
#
# Track frame offsets: 
#        150
#        4545
#        5090
#        21155
#        36340
#        56880
#        81690
#        102932
#        124917
#        148105
#        168335
#        174035
#        191085
#        213367
#        232797
#        254900
#
# Disc length: 3671 seconds
#
# Revision: 5
# Processed by: cddbd v1.5.2PL0 Copyright (c) Steve Scherf et al.
# Submitted via: ExactAudioCopy v1.3
#
DISCID=e00e5510
DTITLE=Michael Cooper - This Heart Of Mine
DYEAR=2001
DGENRE=Funk
TTITLE0=Lift Every Voice (with Howard Hewett)
TTITLE1=Jermaine and Michaela Buggin' (Interlude)
TTITLE2=It's Gonna Be Alright
TTITLE3=Your Face
TTITLE4=This Heart Of Mine
TTITLE5=Love Isn't Over
TTITLE6=All I Wanna Do
TTITLE7=Lookin' For Another Pure Love
TTITLE8=There's No Me
TTITLE9=Just Give Me Love
TTITLE10=Montego Dream (Interlude)
TTITLE11=Humpin' For Your Lovin'
TTITLE12=1-900 Next 2 Me
TTITLE13=Falling Like The Rain
TTITLE14=Too Tight (Latin Lover)
TTITLE15=Break Me Off
EXTD=
EXTT0=
EXTT1=
EXTT2=
EXTT3=
EXTT4=
EXTT5=
EXTT6=
EXTT7=
EXTT8=
EXTT9=
EXTT10=
EXTT11=
EXTT12=
EXTT13=
EXTT14=
EXTT15=
PLAYORDER=
